<svg width="41" height="36" viewBox="0 0 41 36" fill="none" xmlns="http://www.w3.org/2000/svg">
<g clip-path="url(#clip0_190_794)">
<g clip-path="url(#clip1_190_794)">
<path d="M2.25 2.25C1.00547 2.25 0 3.25547 0 4.5C0 5.74453 1.00547 6.75 2.25 6.75H5.0625V11.25H0V20.25C3.72656 20.25 6.75 23.2734 6.75 27V31.5C6.75 32.7445 7.75547 33.75 9 33.75H11.25C12.4945 33.75 13.5 32.7445 13.5 31.5V27C13.5 23.2734 16.5234 20.25 20.25 20.25C23.9766 20.25 27 23.2734 27 27V31.5C27 32.7445 28.0055 33.75 29.25 33.75H31.5C32.7445 33.75 33.75 32.7445 33.75 31.5V27C33.75 23.2734 36.7734 20.25 40.5 20.25V11.25H35.4375V6.75H38.25C39.4945 6.75 40.5 5.74453 40.5 4.5C40.5 3.25547 39.4945 2.25 38.25 2.25H2.25ZM32.0625 6.75V11.25H26.4375V6.75H32.0625ZM23.0625 6.75V11.25H17.4375V6.75H23.0625ZM14.0625 6.75V11.25H8.4375V6.75H14.0625Z" fill="#2563EB"/>
</g>
</g>
<defs>
<clipPath id="clip0_190_794">
<rect width="40.5" height="36" fill="white"/>
</clipPath>
<clipPath id="clip1_190_794">
<path d="M0 0H40.5V36H0V0Z" fill="white"/>
</clipPath>
</defs>
</svg>
