<svg width="32" height="36" viewBox="0 0 32 36" fill="none" xmlns="http://www.w3.org/2000/svg">
<g clip-path="url(#clip0_190_804)">
<path d="M15.75 18C18.1369 18 20.4261 17.0518 22.114 15.364C23.8018 13.6761 24.75 11.3869 24.75 9C24.75 6.61305 23.8018 4.32387 22.114 2.63604C20.4261 0.948212 18.1369 0 15.75 0C13.3631 0 11.0739 0.948212 9.38604 2.63604C7.69821 4.32387 6.75 6.61305 6.75 9C6.75 11.3869 7.69821 13.6761 9.38604 15.364C11.0739 17.0518 13.3631 18 15.75 18ZM9 21.8813C3.79688 23.407 0 28.2164 0 33.9117C0 35.0648 0.935156 36 2.08828 36H29.4117C30.5648 36 31.5 35.0648 31.5 33.9117C31.5 28.2164 27.7031 23.407 22.5 21.8813V25.4531C24.4406 25.9523 25.875 27.7172 25.875 29.8125V32.625C25.875 33.2438 25.3687 33.75 24.75 33.75H23.625C23.0063 33.75 22.5 33.2438 22.5 32.625C22.5 32.0062 23.0063 31.5 23.625 31.5V29.8125C23.625 28.568 22.6195 27.5625 21.375 27.5625C20.1305 27.5625 19.125 28.568 19.125 29.8125V31.5C19.7437 31.5 20.25 32.0062 20.25 32.625C20.25 33.2438 19.7437 33.75 19.125 33.75H18C17.3813 33.75 16.875 33.2438 16.875 32.625V29.8125C16.875 27.7172 18.3094 25.9523 20.25 25.4531V21.4383C19.8281 21.3961 19.3992 21.375 18.9633 21.375H12.5367C12.1008 21.375 11.6719 21.3961 11.25 21.4383V26.0367C12.8742 26.5219 14.0625 28.0266 14.0625 29.8125C14.0625 31.9852 12.2977 33.75 10.125 33.75C7.95234 33.75 6.1875 31.9852 6.1875 29.8125C6.1875 28.0266 7.37578 26.5219 9 26.0367V21.8813ZM10.125 31.5C10.5726 31.5 11.0018 31.3222 11.3182 31.0057C11.6347 30.6893 11.8125 30.2601 11.8125 29.8125C11.8125 29.3649 11.6347 28.9357 11.3182 28.6193C11.0018 28.3028 10.5726 28.125 10.125 28.125C9.67745 28.125 9.24822 28.3028 8.93176 28.6193C8.61529 28.9357 8.4375 29.3649 8.4375 29.8125C8.4375 30.2601 8.61529 30.6893 8.93176 31.0057C9.24822 31.3222 9.67745 31.5 10.125 31.5Z" fill="#2563EB"/>
</g>
<defs>
<clipPath id="clip0_190_804">
<path d="M0 0H31.5V36H0V0Z" fill="white"/>
</clipPath>
</defs>
</svg>
