<svg width="27" height="36" viewBox="0 0 27 36" fill="none" xmlns="http://www.w3.org/2000/svg">
<g clip-path="url(#clip0_190_731)">
<g clip-path="url(#clip1_190_731)">
<path d="M4.5 0C2.01797 0 0 2.01797 0 4.5V31.5C0 33.982 2.01797 36 4.5 36H22.5C24.982 36 27 33.982 27 31.5V11.25H18C16.7555 11.25 15.75 10.2445 15.75 9V0H4.5ZM18 0V9H27L18 0ZM11.25 16.875C11.25 16.2563 11.7563 15.75 12.375 15.75H14.625C15.2437 15.75 15.75 16.2563 15.75 16.875V20.25H19.125C19.7437 20.25 20.25 20.7563 20.25 21.375V23.625C20.25 24.2437 19.7437 24.75 19.125 24.75H15.75V28.125C15.75 28.7437 15.2437 29.25 14.625 29.25H12.375C11.7563 29.25 11.25 28.7437 11.25 28.125V24.75H7.875C7.25625 24.75 6.75 24.2437 6.75 23.625V21.375C6.75 20.7563 7.25625 20.25 7.875 20.25H11.25V16.875Z" fill="#2563EB"/>
</g>
</g>
<defs>
<clipPath id="clip0_190_731">
<rect width="27" height="36" fill="white"/>
</clipPath>
<clipPath id="clip1_190_731">
<path d="M0 0H27V36H0V0Z" fill="white"/>
</clipPath>
</defs>
</svg>
