<svg width="41" height="36" viewBox="0 0 41 36" fill="none" xmlns="http://www.w3.org/2000/svg">
<g clip-path="url(#clip0_190_711)">
<g clip-path="url(#clip1_190_711)">
<path d="M0 9C0 5.27344 3.02344 2.25 6.75 2.25H33.75C37.4766 2.25 40.5 5.27344 40.5 9V27C40.5 30.7266 37.4766 33.75 33.75 33.75H6.75C3.02344 33.75 0 30.7266 0 27V9ZM12.375 12.375V16.3125C12.375 17.2477 13.1273 18 14.0625 18H17.4375C18.3727 18 19.125 17.2477 19.125 16.3125V12.375C19.125 10.5117 17.6133 9 15.75 9C13.8867 9 12.375 10.5117 12.375 12.375ZM24.75 9C22.8867 9 21.375 10.5117 21.375 12.375V16.3125C21.375 17.2477 22.1273 18 23.0625 18H26.4375C27.3727 18 28.125 17.2477 28.125 16.3125V12.375C28.125 10.5117 26.6133 9 24.75 9ZM3.375 14.625V16.3125C3.375 17.2477 4.12734 18 5.0625 18H8.4375C9.37266 18 10.125 17.2477 10.125 16.3125V14.625C10.125 12.7617 8.61328 11.25 6.75 11.25C4.88672 11.25 3.375 12.7617 3.375 14.625ZM6.75 27C8.61328 27 10.125 25.4883 10.125 23.625V21.9375C10.125 21.0023 9.37266 20.25 8.4375 20.25H5.0625C4.12734 20.25 3.375 21.0023 3.375 21.9375V23.625C3.375 25.4883 4.88672 27 6.75 27ZM12.375 23.625C12.375 25.4883 13.8867 27 15.75 27C17.6133 27 19.125 25.4883 19.125 23.625V21.9375C19.125 21.0023 18.3727 20.25 17.4375 20.25H14.0625C13.1273 20.25 12.375 21.0023 12.375 21.9375V23.625ZM24.75 27C26.6133 27 28.125 25.4883 28.125 23.625V21.9375C28.125 21.0023 27.3727 20.25 26.4375 20.25H23.0625C22.1273 20.25 21.375 21.0023 21.375 21.9375V23.625C21.375 25.4883 22.8867 27 24.75 27ZM30.375 14.625V16.3125C30.375 17.2477 31.1273 18 32.0625 18H35.4375C36.3727 18 37.125 17.2477 37.125 16.3125V14.625C37.125 12.7617 35.6133 11.25 33.75 11.25C31.8867 11.25 30.375 12.7617 30.375 14.625ZM33.75 27C35.6133 27 37.125 25.4883 37.125 23.625V21.9375C37.125 21.0023 36.3727 20.25 35.4375 20.25H32.0625C31.1273 20.25 30.375 21.0023 30.375 21.9375V23.625C30.375 25.4883 31.8867 27 33.75 27Z" fill="#2563EB"/>
</g>
</g>
<defs>
<clipPath id="clip0_190_711">
<rect width="40.5" height="36" fill="white"/>
</clipPath>
<clipPath id="clip1_190_711">
<path d="M0 0H40.5V36H0V0Z" fill="white"/>
</clipPath>
</defs>
</svg>
