<svg width="32" height="36" viewBox="0 0 32 36" fill="none" xmlns="http://www.w3.org/2000/svg">
<g clip-path="url(#clip0_190_700)">
<path d="M31.5 36H0V0H31.5V36Z" stroke="#E5E7EB"/>
<path d="M13.0852 3.66348C11.9039 2.74941 10.4555 2.2502 8.96484 2.2502C5.25234 2.2502 2.25 5.25254 2.25 8.96504V9.40098C2.25 10.5119 2.51016 11.6018 3.00234 12.6002L4.65469 15.9119C4.97109 16.5377 5.18906 17.2057 5.31562 17.8947L7.89609 32.365C8.03672 33.1525 8.71172 33.7291 9.50625 33.7572C10.3008 33.7854 11.0109 33.2369 11.1937 32.4635L13.2258 23.9346C13.5141 22.7604 14.5547 21.9377 15.75 21.9377C16.9453 21.9377 17.9859 22.7604 18.2672 23.9275L20.2992 32.4564C20.482 33.2369 21.1922 33.7783 21.9867 33.7502C22.7812 33.7221 23.4563 33.1455 23.5969 32.358L26.1773 17.8877C26.3039 17.1986 26.5219 16.5307 26.8383 15.9049L28.4906 12.5932C28.9898 11.6018 29.243 10.5049 29.243 9.39395V9.24629C29.243 5.3791 26.107 2.24316 22.2398 2.24316C20.5453 2.24316 18.907 2.86191 17.6273 3.97285L17.4023 4.16973L18.7734 5.23848C19.2656 5.61816 19.35 6.32832 18.9703 6.82051C18.5906 7.3127 17.8805 7.39707 17.3883 7.01738L15.6727 5.68145L13.0711 3.65645L13.0852 3.66348Z" fill="#2563EB"/>
</g>
<defs>
<clipPath id="clip0_190_700">
<rect width="31.5" height="36" fill="white"/>
</clipPath>
</defs>
</svg>
