<svg width="45" height="36" viewBox="0 0 45 36" fill="none" xmlns="http://www.w3.org/2000/svg">
<g clip-path="url(#clip0_190_776)">
<path d="M45 36H0V0H45V36Z" stroke="#E5E7EB"/>
<path d="M11.25 0C12.4435 0 13.588 0.474106 14.432 1.31802C15.2759 2.16193 15.75 3.30653 15.75 4.5C15.75 5.69347 15.2759 6.83807 14.432 7.68198C13.588 8.52589 12.4435 9 11.25 9C10.0565 9 8.91191 8.52589 8.068 7.68198C7.22409 6.83807 6.74998 5.69347 6.74998 4.5C6.74998 3.30653 7.22409 2.16193 8.068 1.31802C8.91191 0.474106 10.0565 0 11.25 0ZM6.18748 33.75V28.125H4.93592C4.16951 28.125 3.62811 27.3727 3.86717 26.6414L6.05389 20.0742L4.04295 22.732C3.29061 23.7234 1.87733 23.9133 0.89295 23.168C-0.0914249 22.4227 -0.2883 21.0094 0.457013 20.018L4.59842 14.5547C6.17342 12.4734 8.64139 11.25 11.25 11.25C13.8586 11.25 16.3265 12.4734 17.9015 14.5547L22.043 20.018C22.7953 21.0094 22.5984 22.4227 21.607 23.168C20.6156 23.9133 19.2023 23.7234 18.457 22.732L16.4461 20.0742L18.6328 26.6414C18.8789 27.3727 18.3305 28.125 17.564 28.125H16.3125V33.75C16.3125 34.9945 15.307 36 14.0625 36C12.8179 36 11.8125 34.9945 11.8125 33.75V28.125H10.6875V33.75C10.6875 34.9945 9.68201 36 8.43748 36C7.19295 36 6.18748 34.9945 6.18748 33.75ZM33.75 0C34.9435 0 36.088 0.474106 36.932 1.31802C37.7759 2.16193 38.25 3.30653 38.25 4.5C38.25 5.69347 37.7759 6.83807 36.932 7.68198C36.088 8.52589 34.9435 9 33.75 9C32.5565 9 31.4119 8.52589 30.568 7.68198C29.7241 6.83807 29.25 5.69347 29.25 4.5C29.25 3.30653 29.7241 2.16193 30.568 1.31802C31.4119 0.474106 32.5565 0 33.75 0ZM33.1875 27V33.75C33.1875 34.9945 32.182 36 30.9375 36C29.693 36 28.6875 34.9945 28.6875 33.75V21.1289L27.7805 22.5703C27.1195 23.625 25.7273 23.9344 24.6797 23.2734C23.632 22.6125 23.3156 21.2203 23.9765 20.1727L27.6117 14.4C28.8492 12.4383 31.0078 11.243 33.3211 11.243H34.1859C36.5062 11.243 38.6648 12.4313 39.8953 14.4L43.5304 20.1797C44.1914 21.2344 43.875 22.6195 42.8273 23.2805C41.7797 23.9414 40.3875 23.625 39.7265 22.5773L38.8125 21.1289V33.75C38.8125 34.9945 37.807 36 36.5625 36C35.3179 36 34.3125 34.9945 34.3125 33.75V27H33.1875Z" fill="#2563EB"/>
</g>
<defs>
<clipPath id="clip0_190_776">
<rect width="45" height="36" fill="white"/>
</clipPath>
</defs>
</svg>
