<svg width="36" height="36" viewBox="0 0 36 36" fill="none" xmlns="http://www.w3.org/2000/svg">
<g clip-path="url(#clip0_190_785)">
<path d="M36 36H0V0H36V36Z" stroke="#E5E7EB"/>
<path d="M0 4.5C0 3.25547 1.00547 2.25 2.25 2.25H33.75C34.9945 2.25 36 3.25547 36 4.5C36 5.74453 34.9945 6.75 33.75 6.75V29.25C34.9945 29.25 36 30.2555 36 31.5C36 32.7445 34.9945 33.75 33.75 33.75H2.25C1.00547 33.75 0 32.7445 0 31.5C0 30.2555 1.00547 29.25 2.25 29.25V6.75C1.00547 6.75 0 5.74453 0 4.5ZM18 6.75C17.3813 6.75 16.875 7.25625 16.875 7.875V10.125H11.25C10.6313 10.125 10.125 10.6313 10.125 11.25C10.125 11.8687 10.6313 12.375 11.25 12.375H16.875V15.75H9C8.38125 15.75 7.875 16.2563 7.875 16.875C7.875 17.4937 8.38125 18 9 18H16.875V22.9641L13.2961 21.5859C12.9305 21.4453 12.5508 21.375 12.157 21.375H12.0094C10.35 21.375 9 22.725 9 24.3844C9 25.0594 9.225 25.7133 9.63984 26.2406L10.9195 27.8719C11.6016 28.7437 12.6492 29.25 13.7531 29.25H22.2469C23.3508 29.25 24.3984 28.7437 25.0805 27.8719L26.3602 26.2406C26.775 25.7133 27 25.0594 27 24.3844C27 22.725 25.65 21.375 23.9906 21.375H23.8359C23.4492 21.375 23.0625 21.4453 22.6969 21.5859L19.125 22.9641V18H27C27.6187 18 28.125 17.4937 28.125 16.875C28.125 16.2563 27.6187 15.75 27 15.75H19.125V12.375H24.75C25.3687 12.375 25.875 11.8687 25.875 11.25C25.875 10.6313 25.3687 10.125 24.75 10.125H19.125V7.875C19.125 7.25625 18.6187 6.75 18 6.75ZM14.625 24.75C14.9234 24.75 15.2095 24.8685 15.4205 25.0795C15.6315 25.2905 15.75 25.5766 15.75 25.875C15.75 26.1734 15.6315 26.4595 15.4205 26.6705C15.2095 26.8815 14.9234 27 14.625 27C14.3266 27 14.0405 26.8815 13.8295 26.6705C13.6185 26.4595 13.5 26.1734 13.5 25.875C13.5 25.5766 13.6185 25.2905 13.8295 25.0795C14.0405 24.8685 14.3266 24.75 14.625 24.75ZM20.25 25.875C20.25 25.5766 20.3685 25.2905 20.5795 25.0795C20.7905 24.8685 21.0766 24.75 21.375 24.75C21.6734 24.75 21.9595 24.8685 22.1705 25.0795C22.3815 25.2905 22.5 25.5766 22.5 25.875C22.5 26.1734 22.3815 26.4595 22.1705 26.6705C21.9595 26.8815 21.6734 27 21.375 27C21.0766 27 20.7905 26.8815 20.5795 26.6705C20.3685 26.4595 20.25 26.1734 20.25 25.875Z" fill="#2563EB"/>
</g>
<defs>
<clipPath id="clip0_190_785">
<rect width="36" height="36" fill="white"/>
</clipPath>
</defs>
</svg>
