<svg width="41" height="36" viewBox="0 0 41 36" fill="none" xmlns="http://www.w3.org/2000/svg">
<g clip-path="url(#clip0_190_720)">
<g clip-path="url(#clip1_190_720)">
<path d="M6.75 2.25C3.02344 2.25 0 5.27344 0 9V13.5C0 15.982 2.01797 18 4.5 18H36C38.482 18 40.5 15.982 40.5 13.5V9C40.5 5.27344 37.4766 2.25 33.75 2.25H6.75ZM15.75 6.75C17.6133 6.75 19.125 8.26172 19.125 10.125V14.0625C19.125 14.9977 18.3727 15.75 17.4375 15.75H14.0625C13.1273 15.75 12.375 14.9977 12.375 14.0625V10.125C12.375 8.26172 13.8867 6.75 15.75 6.75ZM21.375 10.125C21.375 8.26172 22.8867 6.75 24.75 6.75C26.6133 6.75 28.125 8.26172 28.125 10.125V14.0625C28.125 14.9977 27.3727 15.75 26.4375 15.75H23.0625C22.1273 15.75 21.375 14.9977 21.375 14.0625V10.125ZM6.75 9C8.61328 9 10.125 10.5117 10.125 12.375V14.0625C10.125 14.9977 9.37266 15.75 8.4375 15.75H5.0625C4.12734 15.75 3.375 14.9977 3.375 14.0625V12.375C3.375 10.5117 4.88672 9 6.75 9ZM30.375 12.375C30.375 10.5117 31.8867 9 33.75 9C35.6133 9 37.125 10.5117 37.125 12.375V14.0625C37.125 14.9977 36.3727 15.75 35.4375 15.75H32.0625C31.1273 15.75 30.375 14.9977 30.375 14.0625V12.375ZM6.75 33.75H33.75C37.4766 33.75 40.5 30.7266 40.5 27V24.75C40.5 22.268 38.482 20.25 36 20.25H4.5C2.01797 20.25 0 22.268 0 24.75V27C0 30.7266 3.02344 33.75 6.75 33.75ZM6.75 29.25C4.88672 29.25 3.375 27.7383 3.375 25.875V24.1875C3.375 23.2523 4.12734 22.5 5.0625 22.5H8.4375C9.37266 22.5 10.125 23.2523 10.125 24.1875V25.875C10.125 27.7383 8.61328 29.25 6.75 29.25ZM12.375 25.875V24.1875C12.375 23.2523 13.1273 22.5 14.0625 22.5H17.4375C18.3727 22.5 19.125 23.2523 19.125 24.1875V25.875C19.125 27.7383 17.6133 29.25 15.75 29.25C13.8867 29.25 12.375 27.7383 12.375 25.875ZM24.75 29.25C22.8867 29.25 21.375 27.7383 21.375 25.875V24.1875C21.375 23.2523 22.1273 22.5 23.0625 22.5H26.4375C27.3727 22.5 28.125 23.2523 28.125 24.1875V25.875C28.125 27.7383 26.6133 29.25 24.75 29.25ZM30.375 25.875V24.1875C30.375 23.2523 31.1273 22.5 32.0625 22.5H35.4375C36.3727 22.5 37.125 23.2523 37.125 24.1875V25.875C37.125 27.7383 35.6133 29.25 33.75 29.25C31.8867 29.25 30.375 27.7383 30.375 25.875Z" fill="#2563EB"/>
</g>
</g>
<defs>
<clipPath id="clip0_190_720">
<rect width="40.5" height="36" fill="white"/>
</clipPath>
<clipPath id="clip1_190_720">
<path d="M0 0H40.5V36H0V0Z" fill="white"/>
</clipPath>
</defs>
</svg>
