<svg width="27" height="36" viewBox="0 0 27 36" fill="none" xmlns="http://www.w3.org/2000/svg">
<g clip-path="url(#clip0_190_758)">
<g clip-path="url(#clip1_190_758)">
<path d="M13.5 0C10.5609 0 8.05781 1.87734 7.13672 4.5H4.5C2.01797 4.5 0 6.51797 0 9V31.5C0 33.982 2.01797 36 4.5 36H22.5C24.982 36 27 33.982 27 31.5V9C27 6.51797 24.982 4.5 22.5 4.5H19.8633C18.9422 1.87734 16.4391 0 13.5 0ZM13.5 4.5C14.0967 4.5 14.669 4.73705 15.091 5.15901C15.5129 5.58097 15.75 6.15326 15.75 6.75C15.75 7.34674 15.5129 7.91903 15.091 8.34099C14.669 8.76295 14.0967 9 13.5 9C12.9033 9 12.331 8.76295 11.909 8.34099C11.4871 7.91903 11.25 7.34674 11.25 6.75C11.25 6.15326 11.4871 5.58097 11.909 5.15901C12.331 4.73705 12.9033 4.5 13.5 4.5ZM21.4453 19.1953L12.4453 28.1953C11.7844 28.8563 10.7156 28.8563 10.0617 28.1953L5.55469 23.6953C4.89375 23.0344 4.89375 21.9656 5.55469 21.3117C6.21562 20.6578 7.28438 20.6508 7.93828 21.3117L11.243 24.6164L19.0547 16.8047C19.7156 16.1437 20.7844 16.1437 21.4383 16.8047C22.0922 17.4656 22.0992 18.5344 21.4383 19.1883L21.4453 19.1953Z" fill="#2563EB"/>
</g>
</g>
<defs>
<clipPath id="clip0_190_758">
<rect width="27" height="36" fill="white"/>
</clipPath>
<clipPath id="clip1_190_758">
<path d="M0 0H27V36H0V0Z" fill="white"/>
</clipPath>
</defs>
</svg>
