<svg width="36" height="36" viewBox="0 0 36 36" fill="none" xmlns="http://www.w3.org/2000/svg">
<g clip-path="url(#clip0_190_767)">
<g clip-path="url(#clip1_190_767)">
<path d="M18 36C22.7739 36 27.3523 34.1036 30.7279 30.7279C34.1036 27.3523 36 22.7739 36 18C36 13.2261 34.1036 8.64773 30.7279 5.27208C27.3523 1.89642 22.7739 0 18 0C13.2261 0 8.64773 1.89642 5.27208 5.27208C1.89642 8.64773 0 13.2261 0 18C0 22.7739 1.89642 27.3523 5.27208 30.7279C8.64773 34.1036 13.2261 36 18 36ZM11.5383 22.8867C12.7969 24.3422 14.9484 25.875 18 25.875C21.0516 25.875 23.2031 24.3422 24.4617 22.8867C24.8695 22.4156 25.5797 22.3664 26.0508 22.7742C26.5219 23.182 26.5711 23.8922 26.1633 24.3633C24.5953 26.1633 21.8742 28.125 18 28.125C14.1258 28.125 11.4047 26.1633 9.83672 24.3633C9.42891 23.8922 9.47812 23.182 9.94922 22.7742C10.4203 22.3664 11.1305 22.4156 11.5383 22.8867ZM10.1531 14.625C10.1531 14.0283 10.3902 13.456 10.8121 13.034C11.2341 12.6121 11.8064 12.375 12.4031 12.375C12.9999 12.375 13.5722 12.6121 13.9941 13.034C14.4161 13.456 14.6531 14.0283 14.6531 14.625C14.6531 15.2217 14.4161 15.794 13.9941 16.216C13.5722 16.6379 12.9999 16.875 12.4031 16.875C11.8064 16.875 11.2341 16.6379 10.8121 16.216C10.3902 15.794 10.1531 15.2217 10.1531 14.625ZM23.6531 12.375C24.2499 12.375 24.8222 12.6121 25.2441 13.034C25.6661 13.456 25.9031 14.0283 25.9031 14.625C25.9031 15.2217 25.6661 15.794 25.2441 16.216C24.8222 16.6379 24.2499 16.875 23.6531 16.875C23.0564 16.875 22.4841 16.6379 22.0621 16.216C21.6402 15.794 21.4031 15.2217 21.4031 14.625C21.4031 14.0283 21.6402 13.456 22.0621 13.034C22.4841 12.6121 23.0564 12.375 23.6531 12.375Z" fill="#2563EB"/>
</g>
</g>
<defs>
<clipPath id="clip0_190_767">
<rect width="36" height="36" fill="white"/>
</clipPath>
<clipPath id="clip1_190_767">
<path d="M0 0H36V36H0V0Z" fill="white"/>
</clipPath>
</defs>
</svg>
