<svg width="41" height="36" viewBox="0 0 41 36" fill="none" xmlns="http://www.w3.org/2000/svg">
<g clip-path="url(#clip0_190_812)">
<path d="M40.5 36H0V0H40.5V36Z" stroke="#E5E7EB"/>
<path d="M2.25 15.7641C2.25 14.2031 2.475 12.6984 2.89688 11.2711L18.4359 22.5703C18.1547 23.2383 18 23.9766 18 24.75V36H9C7.75547 36 6.75 34.9945 6.75 33.75V28.6383C6.75 27.4641 6.26484 26.3531 5.54766 25.418C3.41719 22.6688 2.25 19.2727 2.25 15.7641ZM19.7086 20.7141L3.72656 9.09141C6.23672 3.72656 11.6859 0 18 0H19.6875C26.3813 0 32.4281 4.87266 33.5602 11.2641C33.7219 12.1781 34.0383 13.0711 34.6219 13.7953L37.575 17.4937C37.9547 17.9648 38.1797 18.5344 38.2359 19.125H23.625C22.0992 19.125 20.7211 19.7297 19.7086 20.7141ZM23.625 21.375H37.5469H38.25L36.8648 25.875H25.875C25.2563 25.875 24.75 26.3813 24.75 27C24.75 27.6187 25.2563 28.125 25.875 28.125H36.1758L35.4867 30.375H25.875C25.2563 30.375 24.75 30.8813 24.75 31.5C24.75 32.1188 25.2563 32.625 25.875 32.625H34.7906L34.7273 32.8219C34.1437 34.7133 32.4 36 30.4242 36H20.25V24.75C20.25 23.7656 20.6719 22.8727 21.3469 22.2609C21.9445 21.7125 22.7461 21.375 23.625 21.375ZM27 15.75C27.5967 15.75 28.169 15.5129 28.591 15.091C29.0129 14.669 29.25 14.0967 29.25 13.5C29.25 12.9033 29.0129 12.331 28.591 11.909C28.169 11.4871 27.5967 11.25 27 11.25C26.4033 11.25 25.831 11.4871 25.409 11.909C24.9871 12.331 24.75 12.9033 24.75 13.5C24.75 14.0967 24.9871 14.669 25.409 15.091C25.831 15.5129 26.4033 15.75 27 15.75Z" fill="#2563EB"/>
</g>
<defs>
<clipPath id="clip0_190_812">
<rect width="40.5" height="36" fill="white"/>
</clipPath>
</defs>
</svg>
