<svg width="36" height="36" viewBox="0 0 36 36" fill="none" xmlns="http://www.w3.org/2000/svg">
<g clip-path="url(#clip0_190_839)">
<path d="M36 36H0V0H36V36Z" stroke="#E5E7EB"/>
<path d="M18.9422 0.203906C18.6469 0.0703125 18.3305 0 18 0C17.6696 0 17.3532 0.0703125 17.0578 0.203906L3.818 5.82188C2.27113 6.47578 1.118 8.00156 1.12503 9.84375C1.16019 16.8188 4.02894 29.5805 16.1438 35.3813C17.318 35.9438 18.6821 35.9438 19.8563 35.3813C31.9711 29.5805 34.8399 16.8188 34.875 9.84375C34.8821 8.00156 33.7289 6.47578 32.1821 5.82188L18.9422 0.203906ZM18 7.875C18.6188 7.875 19.125 8.38125 19.125 9C19.125 11.3203 21.9305 12.4805 23.5688 10.8422C24.0047 10.4062 24.7219 10.4062 25.1578 10.8422C25.5938 11.2781 25.5938 11.9953 25.1578 12.4313C23.5196 14.0695 24.6797 16.875 27 16.875C27.6188 16.875 28.125 17.3813 28.125 18C28.125 18.6187 27.6188 19.125 27 19.125C24.6797 19.125 23.5196 21.9305 25.1578 23.5688C25.5938 24.0047 25.5938 24.7219 25.1578 25.1578C24.7219 25.5938 24.0047 25.5938 23.5688 25.1578C21.9305 23.5195 19.125 24.6797 19.125 27C19.125 27.6187 18.6188 28.125 18 28.125C17.3813 28.125 16.875 27.6187 16.875 27C16.875 24.6797 14.0696 23.5195 12.4313 25.1578C11.9953 25.5938 11.2782 25.5938 10.8422 25.1578C10.4063 24.7219 10.4063 24.0047 10.8422 23.5688C12.4805 21.9305 11.3203 19.125 9.00003 19.125C8.38128 19.125 7.87503 18.6187 7.87503 18C7.87503 17.3813 8.38128 16.875 9.00003 16.875C11.3203 16.875 12.4805 14.0695 10.8422 12.4313C10.4063 11.9953 10.4063 11.2781 10.8422 10.8422C11.2782 10.4062 11.9953 10.4062 12.4313 10.8422C14.0696 12.4805 16.875 11.3203 16.875 9C16.875 8.38125 17.3813 7.875 18 7.875ZM16.3125 18C16.7601 18 17.1893 17.8222 17.5058 17.5057C17.8222 17.1893 18 16.7601 18 16.3125C18 15.8649 17.8222 15.4357 17.5058 15.1193C17.1893 14.8028 16.7601 14.625 16.3125 14.625C15.865 14.625 15.4358 14.8028 15.1193 15.1193C14.8028 15.4357 14.625 15.8649 14.625 16.3125C14.625 16.7601 14.8028 17.1893 15.1193 17.5057C15.4358 17.8222 15.865 18 16.3125 18ZM21.375 20.25C21.375 19.9516 21.2565 19.6655 21.0455 19.4545C20.8345 19.2435 20.5484 19.125 20.25 19.125C19.9517 19.125 19.6655 19.2435 19.4545 19.4545C19.2436 19.6655 19.125 19.9516 19.125 20.25C19.125 20.5484 19.2436 20.8345 19.4545 21.0455C19.6655 21.2565 19.9517 21.375 20.25 21.375C20.5484 21.375 20.8345 21.2565 21.0455 21.0455C21.2565 20.8345 21.375 20.5484 21.375 20.25Z" fill="#2563EB"/>
</g>
<defs>
<clipPath id="clip0_190_839">
<rect width="36" height="36" fill="white"/>
</clipPath>
</defs>
</svg>
