<svg width="41" height="36" viewBox="0 0 41 36" fill="none" xmlns="http://www.w3.org/2000/svg">
<g clip-path="url(#clip0_190_821)">
<path d="M40.5 36H0V0H40.5V36Z" stroke="#E5E7EB"/>
<path d="M16.5023 3.00234L13.8516 3.99375C13.6406 4.07109 13.5 4.275 13.5 4.5C13.5 4.725 13.6406 4.92891 13.8516 5.00625L16.5023 5.99766L17.4937 8.64844C17.5711 8.85938 17.775 9 18 9C18.225 9 18.4289 8.85938 18.5063 8.64844L19.4977 5.99766L22.1484 5.00625C22.3594 4.92891 22.5 4.725 22.5 4.5C22.5 4.275 22.3594 4.07109 22.1484 3.99375L19.4977 3.00234L18.5063 0.351562C18.4289 0.140625 18.225 0 18 0C17.775 0 17.5711 0.140625 17.4937 0.351562L16.5023 3.00234ZM3.24141 27.8016C1.92656 29.1164 1.92656 31.2539 3.24141 32.5758L5.67422 35.0086C6.98906 36.3234 9.12656 36.3234 10.4484 35.0086L37.2586 8.19141C38.5734 6.87656 38.5734 4.73906 37.2586 3.41719L34.8258 0.991406C33.5109 -0.323438 31.3734 -0.323438 30.0516 0.991406L3.24141 27.8016ZM34.0734 5.80781L26.6906 13.1906L25.0523 11.5523L32.4352 4.16953L34.0734 5.80781ZM0.527344 8.24062C0.210938 8.36016 0 8.6625 0 9C0 9.3375 0.210938 9.63984 0.527344 9.75938L4.5 11.25L5.99062 15.2227C6.11016 15.5391 6.4125 15.75 6.75 15.75C7.0875 15.75 7.38984 15.5391 7.50938 15.2227L9 11.25L12.9727 9.75938C13.2891 9.63984 13.5 9.3375 13.5 9C13.5 8.6625 13.2891 8.36016 12.9727 8.24062L9 6.75L7.50938 2.77734C7.38984 2.46094 7.0875 2.25 6.75 2.25C6.4125 2.25 6.11016 2.46094 5.99062 2.77734L4.5 6.75L0.527344 8.24062ZM25.2773 26.2406C24.9609 26.3602 24.75 26.6625 24.75 27C24.75 27.3375 24.9609 27.6398 25.2773 27.7594L29.25 29.25L30.7406 33.2227C30.8602 33.5391 31.1625 33.75 31.5 33.75C31.8375 33.75 32.1398 33.5391 32.2594 33.2227L33.75 29.25L37.7227 27.7594C38.0391 27.6398 38.25 27.3375 38.25 27C38.25 26.6625 38.0391 26.3602 37.7227 26.2406L33.75 24.75L32.2594 20.7773C32.1398 20.4609 31.8375 20.25 31.5 20.25C31.1625 20.25 30.8602 20.4609 30.7406 20.7773L29.25 24.75L25.2773 26.2406Z" fill="#2563EB"/>
</g>
<defs>
<clipPath id="clip0_190_821">
<rect width="40.5" height="36" fill="white"/>
</clipPath>
</defs>
</svg>
