<svg width="37" height="36" viewBox="0 0 37 36" fill="none" xmlns="http://www.w3.org/2000/svg">
<g clip-path="url(#clip0_199_311)">
<path d="M18.6562 3.375C10.5773 3.375 4.03125 9.92109 4.03125 18V20.8125C4.03125 21.7477 3.27891 22.5 2.34375 22.5C1.40859 22.5 0.65625 21.7477 0.65625 20.8125V18C0.65625 8.05781 8.71406 0 18.6562 0C28.5984 0 36.6562 8.05781 36.6562 18V28.132C36.6562 31.5492 33.8859 34.3195 30.4617 34.3195L22.7063 34.3125C22.1227 35.318 21.0328 36 19.7812 36H17.5312C15.668 36 14.1562 34.4883 14.1562 32.625C14.1562 30.7617 15.668 29.25 17.5312 29.25H19.7812C21.0328 29.25 22.1227 29.932 22.7063 30.9375L30.4688 30.9445C32.0227 30.9445 33.2812 29.6859 33.2812 28.132V18C33.2812 9.92109 26.7352 3.375 18.6562 3.375ZM10.7812 14.625H11.9062C13.1508 14.625 14.1562 15.6305 14.1562 16.875V24.75C14.1562 25.9945 13.1508 27 11.9062 27H10.7812C8.29922 27 6.28125 24.982 6.28125 22.5V19.125C6.28125 16.643 8.29922 14.625 10.7812 14.625ZM26.5312 14.625C29.0133 14.625 31.0312 16.643 31.0312 19.125V22.5C31.0312 24.982 29.0133 27 26.5312 27H25.4062C24.1617 27 23.1562 25.9945 23.1562 24.75V16.875C23.1562 15.6305 24.1617 14.625 25.4062 14.625H26.5312Z" fill="#0EB19B"/>
</g>
<defs>
<clipPath id="clip0_199_311">
<path d="M0.65625 0H36.6562V36H0.65625V0Z" fill="white"/>
</clipPath>
</defs>
</svg>
