<svg width="46" height="36" viewBox="0 0 46 36" fill="none" xmlns="http://www.w3.org/2000/svg">
<g clip-path="url(#clip0_199_300)">
<path d="M27.9468 0.0842745C26.7515 -0.260257 25.507 0.435837 25.1625 1.63115L16.1625 33.1311C15.8179 34.3265 16.514 35.571 17.7093 35.9155C18.9046 36.2601 20.1492 35.564 20.4937 34.3686L29.4937 2.86865C29.8382 1.67334 29.1421 0.428806 27.9468 0.0842745ZM33.614 8.52881C32.7351 9.40771 32.7351 10.8351 33.614 11.714L39.8929 17.9999L33.607 24.2858C32.7281 25.1647 32.7281 26.5921 33.607 27.471C34.4859 28.3499 35.9132 28.3499 36.7921 27.471L44.6671 19.596C45.546 18.7171 45.546 17.2897 44.6671 16.4108L36.7921 8.53584C35.9132 7.65693 34.4859 7.65693 33.607 8.53584L33.614 8.52881ZM12.0492 8.52881C11.1703 7.6499 9.74292 7.6499 8.86401 8.52881L0.989014 16.4038C0.110107 17.2827 0.110107 18.7101 0.989014 19.589L8.86401 27.464C9.74292 28.3429 11.1703 28.3429 12.0492 27.464C12.9281 26.5851 12.9281 25.1577 12.0492 24.2788L5.76323 17.9999L12.0492 11.714C12.9281 10.8351 12.9281 9.40771 12.0492 8.52881Z" fill="#0EB19B"/>
</g>
<defs>
<clipPath id="clip0_199_300">
<path d="M0.328125 0H45.3281V36H0.328125V0Z" fill="white"/>
</clipPath>
</defs>
</svg>
