<svg width="24" height="27" viewBox="0 0 24 27" fill="none" xmlns="http://www.w3.org/2000/svg">
<path d="M9.9043 1.92773C8.91992 1.16602 7.71289 0.75 6.4707 0.75C3.37695 0.75 0.875 3.25195 0.875 6.3457V6.70898C0.875 7.63477 1.0918 8.54297 1.50195 9.375L2.87891 12.1348C3.14258 12.6563 3.32422 13.2129 3.42969 13.7871L5.58008 25.8457C5.69727 26.502 6.25977 26.9824 6.92188 27.0059C7.58398 27.0293 8.17578 26.5723 8.32812 25.9277L10.0215 18.8203C10.2617 17.8418 11.1289 17.1562 12.125 17.1562C13.1211 17.1562 13.9883 17.8418 14.2227 18.8145L15.916 25.9219C16.0684 26.5723 16.6602 27.0234 17.3223 27C17.9844 26.9766 18.5469 26.4961 18.6641 25.8398L20.8145 13.7812C20.9199 13.207 21.1016 12.6504 21.3652 12.1289L22.7422 9.36914C23.1582 8.54297 23.3691 7.62891 23.3691 6.70313V6.58008C23.3691 3.35742 20.7559 0.744141 17.5332 0.744141C16.1211 0.744141 14.7559 1.25977 13.6895 2.18555L13.502 2.34961L14.6445 3.24023C15.0547 3.55664 15.125 4.14844 14.8086 4.55859C14.4922 4.96875 13.9004 5.03906 13.4902 4.72266L12.0605 3.60938L9.89258 1.92188L9.9043 1.92773Z" fill="#0EB19B"/>
</svg>
