<svg xmlns="http://www.w3.org/2000/svg" width="64" height="64" viewBox="0 0 64 64" fill="none">
  <path d="M32 14C27.4 14 24.1 17.3 22 21.5C19.9 25.7 19 31 19 36C19 41 19.9 46.3 22 50.5C24.1 54.7 27.4 58 32 58C36.6 58 39.9 54.7 42 50.5C44.1 46.3 45 41 45 36C45 31 44.1 25.7 42 21.5C39.9 17.3 36.6 14 32 14ZM32 54C29.2 54 27 51.7 25.2 48.2C23.4 44.7 22.5 40.1 22.5 36C22.5 31.9 23.4 27.3 25.2 23.8C27 20.3 29.2 18 32 18C34.8 18 37 20.3 38.8 23.8C40.6 27.3 41.5 31.9 41.5 36C41.5 40.1 40.6 44.7 38.8 48.2C37 51.7 34.8 54 32 54Z" fill="#0EB19B"/>
  <path d="M34 8H30V12H34V8Z" fill="#0EB19B"/>
  <path d="M18.1 14.5L15.5 11.9L12.3 15.1L14.9 17.7L18.1 14.5Z" fill="#0EB19B"/>
  <path d="M49.1 17.7L51.7 15.1L48.5 11.9L45.9 14.5L49.1 17.7Z" fill="#0EB19B"/>
  <path d="M32 30C29.8 30 28 31.8 28 34C28 35.7 29 37.1 30.5 37.7L29 49H35L33.5 37.7C35 37.1 36 35.7 36 34C36 31.8 34.2 30 32 30Z" fill="#0EB19B"/>
</svg>
