<svg xmlns="http://www.w3.org/2000/svg" width="64" height="64" viewBox="0 0 64 64" fill="none">
  <path d="M32 8C18.7 8 8 18.7 8 32C8 45.3 18.7 56 32 56C45.3 56 56 45.3 56 32C56 18.7 45.3 8 32 8ZM32 52C20.95 52 12 43.05 12 32C12 20.95 20.95 12 32 12C43.05 12 52 20.95 52 32C52 43.05 43.05 52 32 52Z" fill="#0EB19B"/>
  <path d="M44 30H34V20C34 18.9 33.1 18 32 18C30.9 18 30 18.9 30 20V30H20C18.9 30 18 30.9 18 32C18 33.1 18.9 34 20 34H30V44C30 45.1 30.9 46 32 46C33.1 46 34 45.1 34 44V34H44C45.1 34 46 33.1 46 32C46 30.9 45.1 30 44 30Z" fill="#0EB19B"/>
</svg>
