<svg xmlns="http://www.w3.org/2000/svg" width="64" height="64" viewBox="0 0 64 64" fill="none">
  <path d="M32 12C26.5 12 22 16.5 22 22C22 27.5 26.5 32 32 32C37.5 32 42 27.5 42 22C42 16.5 37.5 12 32 12ZM32 28C28.7 28 26 25.3 26 22C26 18.7 28.7 16 32 16C35.3 16 38 18.7 38 22C38 25.3 35.3 28 32 28Z" fill="#0E6B96"/>
  <path d="M48 40H16C14.9 40 14 40.9 14 42V46C14 47.1 14.9 48 16 48H48C49.1 48 50 47.1 50 46V42C50 40.9 49.1 40 48 40Z" fill="#0E6B96"/>
  <path d="M44 32H20C19.4 32 19 32.4 19 33V37C19 37.6 19.4 38 20 38H44C44.6 38 45 37.6 45 37V33C45 32.4 44.6 32 44 32Z" fill="#0E6B96"/>
</svg>
